<svg id="svg" xmlns="http://www.w3.org/2000/svg" xmlns:xlink="http://www.w3.org/1999/xlink" width="400" height="400" viewBox="0, 0, 400,400"><g id="svgg"><path id="path0" d="M135.537 45.155 C 124.161 49.089,119.426 54.140,110.614 71.741 C 102.098 88.751,98.522 92.689,89.648 94.825 L 87.500 95.342 87.499 88.882 C 87.496 74.547,85.507 73.437,59.845 73.440 C 33.972 73.444,32.774 74.075,32.164 88.013 C 31.851 95.183,31.803 95.338,29.789 95.747 C 16.775 98.392,8.326 104.550,3.075 115.218 L 0.391 120.670 0.391 225.805 L 0.391 330.940 3.295 336.818 C 9.898 350.178,19.426 355.679,36.728 356.121 C 49.424 356.446,51.099 355.897,52.023 351.104 C 53.057 345.745,50.150 344.201,38.146 343.738 C 24.067 343.194,17.473 339.297,13.587 329.222 C 11.652 324.206,11.244 130.709,13.154 124.142 C 14.767 118.598,19.222 113.299,24.573 110.561 L 29.180 108.203 61.270 107.780 C 89.241 107.411,93.807 107.182,96.849 105.997 C 107.840 101.715,111.867 97.232,121.027 79.081 C 133.509 54.347,126.893 56.250,200.405 56.250 L 258.344 56.250 263.218 58.685 C 269.327 61.738,271.027 64.027,279.042 79.993 C 285.730 93.312,290.183 99.083,296.740 102.925 C 304.361 107.392,304.167 107.369,338.730 107.802 L 370.819 108.203 375.426 110.561 C 380.778 113.299,385.233 118.598,386.846 124.142 C 387.694 127.058,387.891 146.423,387.891 226.953 L 387.891 326.172 386.027 330.296 C 384.918 332.749,382.621 335.808,380.358 337.842 C 373.205 344.273,387.458 343.750,219.429 343.750 C 111.290 343.750,69.075 343.991,67.701 344.617 C 64.047 346.282,63.081 350.885,65.689 354.201 L 67.316 356.269 220.963 356.064 L 374.609 355.859 379.889 353.358 C 387.223 349.884,393.107 344.096,396.705 336.818 L 399.609 330.940 399.609 225.822 L 399.609 120.703 396.947 115.256 C 388.547 98.065,380.769 95.313,340.603 95.313 C 300.675 95.313,301.348 95.604,289.917 73.339 C 279.853 53.735,275.241 48.701,264.224 45.299 C 256.948 43.051,141.992 42.923,135.537 45.155 M166.542 75.246 C 164.430 77.494,164.340 81.236,166.337 83.703 L 167.831 85.547 200.000 85.547 L 232.169 85.547 233.663 83.703 C 235.736 81.142,235.593 77.245,233.348 75.136 C 231.553 73.450,231.310 73.438,199.891 73.438 L 168.241 73.438 166.542 75.246 M75.000 90.625 L 75.000 95.313 59.766 95.313 L 44.531 95.313 44.531 90.625 L 44.531 85.938 59.766 85.938 L 75.000 85.938 75.000 90.625 M40.012 122.857 C 27.476 126.874,23.058 144.955,32.266 154.561 C 44.736 167.570,65.875 158.964,65.771 140.919 C 65.694 127.678,52.920 118.721,40.012 122.857 M189.063 122.364 C 106.976 132.758,71.054 230.254,127.268 290.084 C 185.611 352.181,289.618 317.111,299.316 232.072 C 306.397 169.982,250.699 114.559,189.063 122.364 M348.750 128.419 C 344.924 130.148,344.132 134.226,346.932 137.785 C 351.076 143.054,367.188 139.982,367.188 133.923 C 367.188 128.490,355.991 125.148,348.750 128.419 M49.465 135.284 C 53.921 137.657,54.546 143.197,50.721 146.415 C 47.571 149.065,44.960 148.986,42.127 146.154 C 36.613 140.639,42.671 131.665,49.465 135.284 M213.765 135.567 C 285.307 147.858,312.216 235.232,259.796 285.026 C 207.278 334.913,121.165 302.543,113.128 229.892 C 107.000 174.503,158.645 126.097,213.765 135.567 M191.016 149.718 C 151.941 155.905,124.457 189.432,127.720 226.928 C 134.153 300.829,231.879 319.488,265.212 253.180 C 278.045 227.651,271.414 179.144,256.676 190.737 C 254.077 192.781,254.212 195.384,257.440 205.469 C 265.822 231.652,251.978 262.789,226.369 275.347 C 186.533 294.883,140.460 266.030,140.360 221.484 C 140.247 171.083,199.511 143.579,238.433 175.970 C 243.841 180.471,247.313 181.159,250.175 178.298 C 261.515 166.957,217.236 145.566,191.016 149.718 " stroke="none" fill="#000000" fill-rule="evenodd"></path></g></svg>