<svg id="svg" version="1.1" xmlns="http://www.w3.org/2000/svg" xmlns:xlink="http://www.w3.org/1999/xlink" width="400" height="400" viewBox="0, 0, 400,400"><g id="svgg"><path id="path0" d="M37.637 1.140 C 20.095 5.385,4.411 21.485,0.847 38.906 C -0.334 44.679,-0.334 205.321,0.847 211.094 C 5.101 231.886,26.367 250.000,46.523 250.000 L 50.000 250.000 50.000 283.242 C 50.000 320.213,49.888 319.369,55.268 323.024 C 58.493 325.216,65.073 325.761,68.215 324.096 C 69.154 323.599,89.140 306.724,112.628 286.596 L 155.335 250.000 218.645 250.000 C 288.685 250.000,286.388 250.152,297.568 244.786 C 310.724 238.473,321.291 225.080,324.153 211.094 C 325.334 205.321,325.334 44.679,324.153 38.906 C 320.508 21.089,303.911 4.492,286.094 0.847 C 279.618 -0.478,43.170 -0.200,37.637 1.140 M349.993 135.742 C 349.986 198.595,349.573 209.608,346.846 219.531 C 339.960 244.587,319.691 264.834,294.479 271.842 C 284.791 274.535,273.732 274.986,217.335 274.993 L 163.185 275.000 136.085 298.152 C 121.180 310.886,108.884 321.559,108.761 321.870 C 107.675 324.615,116.582 325.000,181.186 325.000 L 244.692 325.000 286.604 361.041 C 309.655 380.864,329.570 397.737,330.859 398.538 C 334.448 400.767,341.056 400.523,344.732 398.024 C 350.112 394.369,350.000 395.213,350.000 358.242 L 350.000 325.000 353.477 325.000 C 373.633 325.000,394.899 306.886,399.153 286.094 C 400.334 280.321,400.334 119.679,399.153 113.906 C 394.899 93.114,373.633 75.000,353.477 75.000 L 350.000 75.000 349.993 135.742 " stroke="none" fill="#000000" fill-rule="evenodd"></path></g></svg>