<svg id="svg" xmlns="http://www.w3.org/2000/svg" xmlns:xlink="http://www.w3.org/1999/xlink" width="400" height="400" viewBox="0, 0, 400,400"><g id="svgg"><path id="path0" d="M240.018 1.997 C 239.063 2.666,238.281 3.042,238.281 2.832 C 238.281 2.130,219.904 11.978,217.907 13.750 C 217.229 14.351,216.401 14.844,216.067 14.844 C 215.733 14.844,214.128 15.898,212.500 17.188 C 210.872 18.477,209.234 19.531,208.859 19.531 C 208.483 19.531,206.368 21.113,204.157 23.047 C 201.947 24.980,199.791 26.563,199.367 26.563 C 198.487 26.562,168.772 55.111,167.578 57.103 C 167.148 57.820,163.633 61.991,159.766 66.372 C 155.898 70.753,152.594 74.750,152.423 75.255 C 152.251 75.759,149.878 78.860,147.149 82.146 C 144.420 85.431,142.188 88.470,142.188 88.898 C 142.188 89.326,141.660 89.879,141.016 90.126 C 140.371 90.374,139.844 90.946,139.844 91.399 C 139.844 91.851,138.086 94.458,135.937 97.192 C 133.789 99.925,132.031 102.386,132.031 102.660 C 132.031 102.934,130.241 105.436,128.054 108.220 C 125.866 111.004,124.290 113.281,124.551 113.281 C 124.813 113.281,123.231 115.566,121.036 118.359 C 118.841 121.152,117.259 123.438,117.520 123.438 C 117.781 123.438,116.199 125.723,114.004 128.516 C 111.809 131.309,110.236 133.594,110.509 133.594 C 110.781 133.594,109.041 136.055,106.641 139.063 C 104.241 142.070,102.483 144.531,102.735 144.531 C 102.986 144.531,101.244 146.943,98.862 149.891 C 96.480 152.839,94.531 155.521,94.531 155.850 C 94.531 156.180,92.070 159.372,89.063 162.944 C 86.055 166.516,83.594 169.745,83.594 170.119 C 83.594 170.494,82.539 171.580,81.250 172.533 C 79.961 173.486,78.906 174.726,78.906 175.289 C 78.906 176.453,51.754 204.747,50.897 204.474 C 50.591 204.377,47.949 206.406,45.028 208.984 C 42.106 211.563,39.467 213.672,39.162 213.672 C 38.858 213.672,37.166 214.814,35.403 216.211 C 33.640 217.607,31.950 218.750,31.649 218.750 C 31.347 218.750,29.997 219.541,28.647 220.508 C 26.120 222.318,25.523 222.675,19.501 225.967 C 17.551 227.033,15.266 228.292,14.423 228.766 C 13.580 229.239,10.878 230.541,8.418 231.658 C 3.583 233.853,1.158 236.595,0.929 240.124 C 0.802 242.092,5.772 247.421,42.824 285.046 C 65.946 308.524,100.133 343.291,118.795 362.305 C 155.338 399.536,154.570 398.902,159.201 395.659 C 160.156 394.990,160.938 394.614,160.938 394.824 C 160.938 395.526,179.314 385.678,181.312 383.907 C 181.990 383.305,182.818 382.813,183.152 382.813 C 183.486 382.813,185.091 381.758,186.719 380.469 C 188.346 379.180,189.956 378.125,190.297 378.125 C 190.637 378.125,192.520 376.796,194.481 375.172 C 196.442 373.549,198.994 371.620,200.151 370.886 C 202.671 369.290,231.304 341.675,232.422 339.763 C 232.852 339.028,236.279 334.921,240.039 330.636 C 243.799 326.350,246.875 322.590,246.875 322.279 C 246.875 321.968,249.160 318.974,251.953 315.625 C 254.746 312.276,257.031 309.149,257.031 308.675 C 257.031 308.200,257.394 307.813,257.837 307.813 C 258.280 307.813,258.875 307.197,259.160 306.445 C 259.444 305.693,261.367 302.922,263.432 300.286 C 265.498 297.650,267.188 295.270,267.188 294.996 C 267.187 294.722,268.945 292.261,271.094 289.527 C 273.242 286.793,275.000 284.313,275.000 284.016 C 275.000 283.718,276.582 281.419,278.516 278.906 C 280.449 276.393,282.031 274.108,282.031 273.828 C 282.031 273.548,283.613 271.263,285.547 268.750 C 287.480 266.237,289.063 263.938,289.063 263.640 C 289.063 263.343,290.826 260.855,292.982 258.112 C 295.138 255.369,296.697 253.125,296.447 253.125 C 296.198 253.125,298.148 250.488,300.781 247.266 C 303.415 244.043,305.353 241.406,305.089 241.406 C 304.826 241.406,307.088 238.439,310.117 234.812 C 313.147 231.185,315.625 227.912,315.625 227.537 C 315.625 227.163,316.680 226.077,317.969 225.124 C 319.258 224.170,320.313 222.933,320.313 222.374 C 320.313 221.180,346.648 193.750,347.795 193.750 C 348.224 193.750,350.912 191.641,353.769 189.063 C 356.626 186.484,359.260 184.375,359.623 184.375 C 359.987 184.375,361.786 183.145,363.621 181.641 C 365.456 180.137,367.219 178.906,367.538 178.906 C 367.857 178.906,369.226 178.115,370.579 177.148 C 373.859 174.806,376.133 173.545,386.545 168.295 C 391.686 165.703,395.954 163.001,396.792 161.809 C 400.285 156.840,404.310 161.372,322.266 77.895 C 240.374 -5.425,244.793 -1.348,240.018 1.997 M256.997 32.388 C 269.207 44.611,271.169 46.891,269.880 47.358 C 269.044 47.662,267.480 48.494,266.406 49.207 C 263.811 50.930,256.519 53.970,253.981 54.387 C 252.866 54.570,251.057 54.901,249.962 55.122 C 245.040 56.116,233.952 55.352,231.094 53.823 C 230.247 53.369,229.354 53.198,229.110 53.442 C 228.866 53.686,227.490 53.158,226.052 52.270 C 224.614 51.381,223.438 50.891,223.438 51.181 C 223.438 51.472,221.679 50.446,219.529 48.901 C 217.380 47.357,215.372 46.094,215.067 46.094 C 214.762 46.094,213.009 44.618,211.171 42.815 L 207.830 39.535 209.520 37.736 C 210.449 36.747,211.529 35.938,211.919 35.938 C 212.309 35.938,214.129 34.707,215.965 33.203 C 217.800 31.699,219.566 30.469,219.890 30.469 C 220.214 30.469,221.759 29.487,223.325 28.286 C 224.891 27.085,227.051 25.656,228.125 25.109 C 229.199 24.562,231.133 23.509,232.422 22.768 C 237.953 19.591,238.698 19.195,239.193 19.168 C 239.479 19.153,239.977 18.877,240.299 18.555 C 241.605 17.249,243.167 18.542,256.997 32.388 M199.651 52.734 C 201.236 54.668,202.873 56.250,203.290 56.250 C 203.707 56.250,205.488 57.483,207.248 58.989 C 211.649 62.756,222.488 67.952,227.734 68.809 C 228.164 68.880,229.364 69.260,230.402 69.654 C 239.247 73.017,265.687 69.161,271.938 63.596 C 272.618 62.991,273.332 62.655,273.525 62.848 C 273.718 63.041,275.550 61.879,277.596 60.266 L 281.315 57.332 304.552 80.814 C 347.370 124.084,343.151 118.367,337.824 125.892 C 335.412 129.299,330.899 139.389,330.171 143.003 C 328.196 152.802,327.987 155.014,328.406 161.719 C 328.660 165.801,329.294 170.547,329.814 172.266 C 331.000 176.190,330.874 175.753,331.617 178.516 C 331.963 179.805,332.563 181.263,332.950 181.756 C 335.319 184.779,332.451 190.327,327.525 192.249 C 326.551 192.630,325.440 193.738,325.057 194.713 C 324.673 195.687,322.542 198.242,320.320 200.391 C 315.694 204.864,298.047 224.907,298.047 225.688 C 298.047 225.974,295.827 228.924,293.114 232.244 C 290.401 235.565,288.394 238.281,288.655 238.281 C 288.916 238.281,287.181 240.693,284.799 243.641 C 282.417 246.589,280.469 249.264,280.469 249.585 C 280.469 249.906,278.681 252.416,276.495 255.163 C 274.310 257.909,272.734 260.156,272.993 260.156 C 273.252 260.156,271.668 262.441,269.473 265.234 C 267.278 268.027,265.778 270.323,266.140 270.336 C 266.501 270.349,266.182 270.718,265.430 271.156 C 264.678 271.594,264.063 272.294,264.063 272.712 C 264.062 273.129,262.305 275.708,260.156 278.442 C 258.008 281.175,256.250 283.670,256.250 283.984 C 256.250 284.299,254.492 286.793,252.344 289.527 C 250.195 292.261,248.438 294.730,248.438 295.014 C 248.437 295.298,246.489 297.942,244.107 300.890 C 241.725 303.838,239.991 306.250,240.254 306.250 C 240.516 306.250,238.126 309.326,234.942 313.086 C 231.758 316.846,229.010 320.334,228.834 320.839 C 228.414 322.047,213.037 339.056,207.414 344.531 L 203.002 348.828 200.057 345.444 C 198.438 343.582,196.392 341.649,195.511 341.147 C 194.631 340.645,192.731 339.302,191.291 338.163 C 186.654 334.494,171.094 327.053,171.094 328.503 C 171.094 328.704,170.157 328.511,169.012 328.076 C 159.985 324.644,133.609 328.426,127.280 334.060 C 126.601 334.665,125.887 335.002,125.694 334.808 C 125.500 334.615,123.669 335.777,121.623 337.391 L 117.904 340.324 94.667 316.842 C 51.849 273.572,56.068 279.289,61.395 271.764 C 63.806 268.357,68.320 258.267,69.048 254.653 C 71.023 244.854,71.231 242.642,70.813 235.938 C 70.558 231.855,69.925 227.109,69.405 225.391 C 68.219 221.468,68.345 221.904,67.602 219.141 C 67.255 217.852,66.598 216.094,66.141 215.234 C 64.613 212.359,64.850 211.050,67.229 209.229 C 72.682 205.053,75.000 202.909,75.000 202.038 C 75.000 201.529,76.786 199.369,78.970 197.236 C 83.644 192.671,101.872 171.875,101.199 171.875 C 100.944 171.875,103.063 169.062,105.907 165.625 C 108.751 162.187,110.855 159.375,110.583 159.375 C 110.311 159.375,112.038 156.963,114.419 154.015 C 116.801 151.067,118.750 148.392,118.750 148.071 C 118.750 147.750,120.538 145.240,122.724 142.494 C 124.909 139.747,126.485 137.500,126.226 137.500 C 125.967 137.500,127.551 135.215,129.746 132.422 C 131.941 129.629,133.529 127.344,133.274 127.344 C 133.020 127.344,133.364 126.729,134.037 125.977 C 136.092 123.682,142.969 114.165,142.969 113.616 C 142.969 113.332,144.727 110.863,146.875 108.129 C 149.023 105.395,150.781 102.926,150.781 102.642 C 150.781 102.358,152.730 99.714,155.112 96.766 C 157.494 93.818,159.228 91.406,158.965 91.406 C 158.702 91.406,161.148 88.270,164.400 84.438 C 167.652 80.605,170.313 77.217,170.313 76.909 C 170.313 75.639,194.954 49.219,196.137 49.219 C 196.485 49.219,198.067 50.801,199.651 52.734 M279.852 109.601 C 265.093 124.381,264.735 125.075,269.465 129.805 C 274.420 134.760,275.121 134.430,290.174 120.049 C 304.928 105.954,305.844 104.161,300.841 99.159 C 295.980 94.297,294.301 95.132,279.852 109.601 M190.565 117.482 C 190.383 117.648,188.652 117.989,186.719 118.238 C 183.587 118.641,180.872 119.174,178.516 119.845 C 178.086 119.968,176.680 120.354,175.391 120.704 C 174.102 121.054,171.465 122.047,169.531 122.911 C 167.598 123.775,165.840 124.534,165.625 124.597 C 163.781 125.142,158.446 128.102,156.138 129.861 C 154.572 131.055,153.030 132.031,152.710 132.031 C 150.618 132.031,131.767 151.584,131.883 153.634 C 131.903 153.999,131.418 154.578,130.804 154.922 C 130.190 155.265,129.688 155.914,129.688 156.364 C 129.688 156.813,129.023 158.114,128.211 159.254 C 127.399 160.395,126.720 161.504,126.703 161.719 C 126.686 161.934,125.650 164.395,124.401 167.188 C 123.152 169.980,121.842 173.320,121.490 174.609 C 121.138 175.898,120.749 177.305,120.627 177.734 C 117.831 187.537,117.448 207.077,119.860 216.797 C 121.108 221.826,122.613 226.558,123.835 229.297 C 124.602 231.016,125.311 232.773,125.411 233.203 C 125.511 233.633,126.953 236.220,128.617 238.953 C 130.280 241.686,131.992 244.521,132.422 245.253 C 135.562 250.601,153.332 267.634,154.815 266.718 C 155.175 266.496,155.469 266.697,155.469 267.166 C 155.469 267.634,156.084 268.240,156.836 268.511 C 157.588 268.782,159.082 269.612,160.156 270.354 C 161.230 271.096,162.461 271.796,162.891 271.909 C 163.320 272.023,165.781 273.059,168.359 274.212 C 170.938 275.364,174.102 276.596,175.391 276.948 C 176.680 277.300,178.086 277.688,178.516 277.811 C 189.170 280.849,214.298 280.926,219.883 277.937 C 220.764 277.465,221.660 277.124,221.875 277.178 C 222.774 277.403,226.297 276.298,227.930 275.280 C 228.896 274.676,229.688 274.379,229.688 274.619 C 229.688 274.859,230.479 274.616,231.445 274.079 C 232.412 273.542,233.379 273.074,233.594 273.039 C 234.638 272.871,241.303 269.138,243.503 267.489 C 244.870 266.464,246.237 265.625,246.539 265.625 C 248.604 265.625,267.289 246.176,267.112 244.211 C 267.076 243.820,267.606 243.187,268.289 242.805 C 268.972 242.423,269.531 241.742,269.531 241.293 C 269.531 240.843,270.169 239.542,270.949 238.402 C 272.893 235.559,277.428 224.631,278.618 219.922 C 280.441 212.704,280.860 208.757,280.855 198.828 C 280.851 190.232,280.437 185.310,279.326 180.664 C 277.789 174.232,276.734 171.070,275.718 169.846 C 275.218 169.243,275.040 168.750,275.322 168.750 C 275.605 168.750,275.397 167.959,274.860 166.992 C 274.323 166.025,273.855 165.059,273.821 164.844 C 273.652 163.800,269.919 157.135,268.270 154.935 C 267.245 153.567,266.406 152.217,266.406 151.935 C 266.406 149.804,245.835 130.053,244.485 130.888 C 244.171 131.082,243.712 130.716,243.466 130.074 C 243.219 129.432,242.622 128.906,242.137 128.906 C 241.653 128.906,240.324 128.268,239.183 127.488 C 238.043 126.708,234.473 124.973,231.250 123.632 C 224.683 120.899,222.553 120.186,217.969 119.188 C 216.895 118.954,215.137 118.544,214.063 118.276 C 211.838 117.721,191.068 117.019,190.565 117.482 M365.517 142.570 C 378.664 156.021,378.820 156.276,374.406 157.096 C 374.088 157.155,372.895 157.867,371.754 158.680 C 370.614 159.492,369.417 160.156,369.094 160.156 C 368.771 160.156,367.355 161.035,365.946 162.109 C 364.538 163.184,363.130 164.063,362.818 164.063 C 362.507 164.063,360.286 165.546,357.883 167.360 C 355.481 169.174,353.486 170.492,353.451 170.290 C 353.415 170.088,352.084 171.064,350.494 172.461 C 347.378 175.197,346.406 175.556,346.263 174.023 C 346.213 173.486,345.632 170.938,344.973 168.359 C 343.578 162.902,343.392 153.272,344.599 148.926 C 345.062 147.261,345.555 145.303,345.695 144.574 C 346.267 141.602,352.195 130.469,353.205 130.469 C 353.472 130.469,359.013 135.914,365.517 142.570 M212.500 133.670 C 221.173 135.330,230.123 139.189,238.281 144.788 C 242.647 147.785,252.344 157.071,252.344 158.256 C 252.344 158.738,253.016 159.742,253.838 160.486 C 255.822 162.281,261.882 174.591,262.907 178.906 C 262.958 179.121,263.403 180.703,263.896 182.422 C 265.257 187.163,265.944 193.457,265.865 200.448 C 265.805 205.735,265.351 209.031,263.613 216.797 C 261.254 227.336,245.013 251.563,240.306 251.563 C 239.892 251.563,238.828 252.231,237.941 253.049 C 235.410 255.381,221.578 262.253,218.933 262.493 C 218.617 262.522,217.129 262.870,215.625 263.268 C 208.984 265.024,198.217 265.689,191.918 264.731 C 183.997 263.528,182.360 263.161,177.734 261.551 C 163.031 256.436,149.422 245.303,142.239 232.514 C 140.638 229.664,136.036 219.163,135.944 218.152 C 135.916 217.836,135.563 216.348,135.159 214.844 C 130.523 197.558,134.685 174.867,145.000 161.185 C 146.031 159.817,146.875 158.419,146.875 158.078 C 146.875 157.111,158.057 146.094,159.039 146.094 C 159.520 146.094,160.523 145.421,161.267 144.599 C 163.062 142.616,175.372 136.555,179.688 135.531 C 179.902 135.480,181.570 135.010,183.394 134.487 C 185.218 133.964,188.909 133.329,191.597 133.075 C 194.285 132.822,196.619 132.495,196.783 132.350 C 197.287 131.903,207.947 132.799,212.500 133.670 M159.673 154.229 C 158.763 154.880,157.843 155.239,157.630 155.026 C 157.417 154.813,156.644 155.553,155.912 156.670 C 153.910 159.726,154.550 163.210,157.740 166.614 L 160.498 169.556 158.996 172.346 C 155.467 178.899,155.758 192.127,159.532 196.674 C 159.981 197.214,160.105 197.656,159.809 197.656 C 157.894 197.656,170.500 209.685,172.528 209.793 C 172.813 209.809,173.870 210.278,174.876 210.836 C 177.422 212.247,187.254 212.854,191.016 211.832 C 192.734 211.365,194.316 211.059,194.531 211.152 C 194.746 211.246,196.031 210.532,197.386 209.567 C 198.742 208.602,200.094 207.813,200.391 207.813 C 200.689 207.813,202.480 206.450,204.371 204.785 C 214.445 195.918,228.119 202.031,227.182 214.983 C 226.394 225.889,213.077 230.923,205.008 223.367 C 201.535 220.114,192.623 221.022,192.566 224.634 C 192.560 225.050,192.252 225.868,191.883 226.450 C 189.489 230.228,198.170 239.455,205.666 241.101 C 206.632 241.313,208.301 241.695,209.375 241.950 C 212.934 242.795,218.290 242.261,223.740 240.518 L 229.121 238.798 231.162 241.267 C 233.671 244.303,237.670 245.326,239.733 243.460 C 240.508 242.758,241.349 242.391,241.602 242.643 C 242.399 243.441,244.116 239.567,244.228 236.719 C 244.313 234.565,243.739 233.359,241.528 231.042 L 238.721 228.100 240.223 225.310 C 243.752 218.757,243.460 205.530,239.687 200.983 C 239.238 200.442,239.123 200.000,239.430 200.000 C 240.591 200.000,233.623 192.471,230.168 189.991 C 228.185 188.567,226.563 187.609,226.563 187.860 C 226.563 188.112,225.611 187.694,224.448 186.932 C 221.719 185.143,207.260 184.908,205.198 186.619 C 204.488 187.209,203.906 187.449,203.906 187.152 C 203.906 186.855,202.852 187.363,201.563 188.281 C 200.273 189.199,199.219 189.718,199.219 189.434 C 199.219 189.150,197.475 190.486,195.344 192.402 C 185.051 201.656,171.236 196.086,172.040 183.008 C 172.728 171.810,185.993 166.593,194.211 174.289 C 197.688 177.546,206.679 176.633,206.436 173.047 C 206.407 172.617,206.757 171.815,207.214 171.264 C 210.074 167.818,201.166 158.227,193.553 156.555 C 192.587 156.343,190.918 155.961,189.844 155.706 C 186.285 154.861,180.928 155.395,175.479 157.138 L 170.098 158.859 168.057 156.389 C 165.627 153.449,162.050 152.527,159.673 154.229 M52.956 223.633 C 53.006 224.170,53.596 226.719,54.268 229.297 C 55.726 234.895,55.904 243.918,54.649 248.580 C 54.150 250.432,53.638 252.490,53.510 253.153 C 53.179 254.875,48.644 264.163,47.244 265.989 C 46.116 267.459,45.680 267.142,37.040 258.567 C 21.925 243.565,20.146 240.943,24.788 240.510 C 25.120 240.479,26.324 239.789,27.464 238.977 C 28.605 238.164,29.802 237.500,30.125 237.500 C 30.448 237.500,31.864 236.621,33.273 235.547 C 34.681 234.473,36.088 233.594,36.400 233.594 C 36.712 233.594,38.757 232.242,40.945 230.591 C 43.132 228.939,45.273 227.492,45.703 227.375 C 46.133 227.258,47.639 226.149,49.051 224.909 C 51.853 222.449,52.816 222.134,52.956 223.633 M109.145 277.557 C 94.246 291.953,93.427 293.547,98.377 298.498 C 103.239 303.359,104.918 302.524,119.367 288.055 C 134.097 273.305,134.476 272.573,129.806 267.904 C 124.688 262.785,124.195 263.016,109.145 277.557 M162.349 342.538 C 164.629 342.771,167.163 343.319,167.981 343.757 C 168.799 344.194,169.746 344.475,170.086 344.381 C 170.425 344.287,171.846 344.819,173.242 345.563 C 174.639 346.306,175.781 346.697,175.781 346.431 C 175.781 346.165,177.540 347.211,179.689 348.755 C 181.839 350.299,183.847 351.563,184.152 351.563 C 184.457 351.563,186.210 353.038,188.048 354.842 L 191.389 358.121 189.699 359.920 C 188.769 360.909,187.690 361.719,187.300 361.719 C 186.910 361.719,185.089 362.949,183.254 364.453 C 181.419 365.957,179.652 367.188,179.329 367.188 C 179.005 367.188,177.459 368.170,175.894 369.370 C 174.328 370.571,172.168 372.001,171.094 372.547 C 170.020 373.094,168.086 374.148,166.797 374.888 C 161.593 377.877,160.530 378.464,160.156 378.555 C 159.941 378.608,159.115 378.935,158.320 379.283 C 157.137 379.800,154.230 377.272,142.342 365.384 C 130.009 353.051,128.042 350.769,129.335 350.299 C 130.173 349.995,131.738 349.162,132.813 348.449 C 135.329 346.778,142.624 343.712,145.238 343.226 C 148.954 342.535,156.630 341.709,157.422 341.914 C 157.852 342.025,160.069 342.306,162.349 342.538 " stroke="none" fill="#000000" fill-rule="evenodd"></path></g></svg>