<svg id="svg" version="1.1" xmlns="http://www.w3.org/2000/svg" xmlns:xlink="http://www.w3.org/1999/xlink" width="400" height="336.1702127659575" viewBox="0, 0, 400,336.1702127659575"><g id="svgg"><path id="path0" d="M193.272 40.146 C 191.179 40.835,190.362 41.364,188.730 43.088 C 187.564 44.319,186.778 44.812,185.307 45.236 C 180.988 46.480,177.561 51.597,176.897 57.796 C 176.567 60.868,176.455 61.196,174.985 63.377 C 174.126 64.651,173.159 66.089,172.836 66.573 C 172.513 67.056,172.248 67.641,172.247 67.872 C 172.245 68.533,176.404 68.379,179.288 67.612 C 180.663 67.246,182.555 66.945,183.493 66.942 C 185.727 66.935,188.542 66.137,187.499 65.806 C 182.041 64.074,180.829 54.468,185.409 49.233 C 186.218 48.308,187.334 46.984,187.889 46.291 C 189.837 43.859,190.976 43.589,200.825 43.229 C 206.169 43.033,207.111 42.651,205.708 41.248 C 204.422 39.962,196.077 39.222,193.272 40.146 M211.859 47.022 C 210.932 47.220,211.402 48.733,213.319 51.719 C 214.292 53.235,214.656 60.233,213.843 61.805 C 213.314 62.827,210.987 64.444,209.109 65.093 C 207.390 65.687,207.765 66.142,210.335 66.579 C 211.682 66.808,214.146 67.282,215.812 67.632 C 226.554 69.890,227.856 69.607,223.452 65.975 C 221.236 64.147,220.729 62.954,220.352 58.676 C 219.980 54.465,219.754 53.967,217.492 52.387 C 216.172 51.464,215.383 50.572,214.618 49.138 C 213.583 47.195,213.029 46.771,211.859 47.022 M198.654 65.284 C 200.515 65.669,201.514 65.662,201.514 65.265 C 201.514 65.072,200.615 64.945,199.411 64.967 C 197.402 65.004,197.369 65.018,198.654 65.284 M281.581 69.987 C 275.290 70.480,271.614 71.499,268.511 73.609 C 267.466 74.320,265.599 75.466,264.362 76.156 C 263.125 76.845,261.192 78.145,260.066 79.045 C 258.389 80.386,257.325 80.900,254.168 81.895 C 248.491 83.683,248.497 83.675,248.239 89.371 C 248.087 92.739,247.844 94.541,247.361 95.879 C 246.592 98.014,246.280 99.352,245.058 105.750 C 244.065 110.949,244.088 111.658,245.460 118.082 C 247.517 127.714,248.809 131.397,250.951 133.737 C 251.634 134.484,252.997 136.632,253.979 138.511 C 256.154 142.670,256.607 143.111,261.022 145.373 C 262.944 146.357,265.215 147.784,266.068 148.544 C 266.922 149.304,268.539 150.545,269.663 151.302 C 272.363 153.120,273.554 154.533,274.485 157.023 C 275.786 160.502,276.031 160.547,278.790 157.810 C 281.699 154.923,282.100 154.792,292.723 153.256 C 301.699 151.958,304.036 151.244,307.653 148.701 C 308.949 147.790,311.220 146.289,312.700 145.366 C 314.736 144.096,315.675 143.254,316.557 141.903 C 317.198 140.921,318.498 139.134,319.445 137.931 C 321.909 134.803,322.778 133.326,324.127 129.981 C 324.783 128.355,325.709 126.435,326.185 125.716 C 330.010 119.936,330.021 100.824,326.202 95.795 C 325.745 95.193,324.745 93.387,323.979 91.779 C 323.195 90.133,321.824 87.991,320.839 86.873 C 319.878 85.781,318.046 83.690,316.767 82.225 C 314.087 79.155,311.174 76.712,308.706 75.464 C 307.757 74.985,305.964 73.930,304.722 73.121 C 300.550 70.402,291.651 69.197,281.581 69.987 M149.278 81.362 C 148.430 82.133,146.867 83.030,145.408 83.581 C 143.491 84.305,142.725 84.806,141.876 85.889 C 141.279 86.650,139.717 88.338,138.406 89.641 C 136.677 91.359,135.483 92.981,134.061 95.542 C 132.983 97.485,131.679 99.529,131.164 100.084 C 129.533 101.841,128.576 105.219,129.540 105.815 C 130.593 106.466,132.548 104.494,132.548 102.780 C 132.548 101.632,133.476 100.483,135.293 99.379 C 137.005 98.339,137.413 97.870,138.608 95.574 C 139.453 93.950,140.633 92.328,141.714 91.305 C 146.117 87.139,147.925 85.184,148.491 83.980 C 148.828 83.263,149.390 82.602,149.741 82.511 C 150.091 82.419,150.378 82.153,150.378 81.920 C 150.378 81.686,150.606 81.307,150.883 81.077 C 151.161 80.846,151.388 80.525,151.388 80.363 C 151.388 79.759,150.660 80.104,149.278 81.362 M295.879 82.753 C 302.844 84.366,308.731 88.461,311.605 93.692 C 312.114 94.617,313.031 96.068,313.645 96.917 C 318.300 103.358,317.997 118.374,313.043 126.731 C 307.746 135.665,305.656 137.730,300.172 139.443 C 298.551 139.950,295.862 140.990,294.197 141.755 L 291.169 143.146 286.964 143.135 L 282.759 143.125 278.573 141.327 C 276.270 140.338,273.357 139.179,272.099 138.751 C 269.195 137.763,268.828 137.495,267.009 135.023 C 266.184 133.903,264.965 132.651,264.300 132.239 C 262.793 131.308,262.028 130.231,261.106 127.739 C 260.145 125.142,259.193 123.287,257.853 121.403 C 254.035 116.034,253.975 107.138,257.718 101.462 C 258.626 100.084,259.987 97.546,260.743 95.820 C 262.566 91.658,262.736 91.426,265.180 89.769 C 266.337 88.984,267.977 87.694,268.826 86.902 C 273.939 82.128,285.514 80.352,295.879 82.753 M124.878 113.103 C 124.654 113.328,124.474 114.405,124.474 115.530 C 124.474 118.204,125.419 117.499,125.718 114.603 C 125.913 112.710,125.683 112.299,124.878 113.103 M119.160 134.316 C 118.057 135.645,117.963 138.041,117.770 169.554 C 117.538 207.498,118.192 203.816,111.139 206.892 C 101.856 210.939,100.513 211.795,98.360 215.033 C 97.529 216.283,96.038 218.030,95.046 218.914 C 92.108 221.534,90.309 225.736,92.126 225.736 C 92.964 225.736,93.654 224.911,94.898 222.422 C 95.856 220.503,96.130 220.235,98.182 219.199 C 99.413 218.578,101.102 217.470,101.934 216.738 C 105.333 213.747,109.949 212.602,122.624 211.603 C 129.301 211.077,130.663 210.767,131.695 209.541 C 133.884 206.940,132.162 205.184,126.953 204.703 C 124.041 204.434,122.744 203.710,121.712 201.779 L 120.942 200.336 120.744 168.881 C 120.538 136.172,120.385 132.840,119.160 134.316 M275.850 195.879 C 275.818 198.850,274.580 202.416,273.119 203.745 C 270.449 206.174,271.311 206.142,219.512 205.711 C 195.828 205.514,176.118 205.466,175.711 205.605 C 173.826 206.249,173.480 208.722,175.124 209.800 C 176.079 210.425,175.300 210.423,233.137 209.955 C 264.262 209.704,267.814 209.795,271.973 210.957 C 273.279 211.322,275.862 211.769,277.712 211.951 C 285.222 212.687,287.432 213.380,291.908 216.397 C 293.352 217.370,295.246 218.609,296.118 219.150 C 296.989 219.691,298.474 221.097,299.417 222.274 C 300.835 224.043,305.130 227.030,305.130 226.247 C 305.130 226.072,302.779 220.936,302.123 219.680 C 301.779 219.020,300.649 217.912,299.551 217.157 C 298.069 216.139,297.293 215.282,296.363 213.635 C 294.966 211.161,294.312 210.768,291.001 210.411 C 283.125 209.563,277.717 204.783,276.842 197.897 C 276.457 194.868,275.874 193.681,275.850 195.879 M305.915 228.857 C 306.115 231.130,307.146 234.059,307.919 234.550 C 309.989 235.866,309.123 229.812,306.946 227.745 L 305.715 226.577 305.915 228.857 M87.273 230.609 C 86.877 231.213,86.599 233.066,86.271 237.300 C 85.848 242.756,85.743 243.305,84.730 245.360 C 83.501 247.851,83.620 248.732,85.335 249.856 C 86.208 250.428,88.271 250.472,121.432 250.631 L 156.602 250.799 158.284 251.640 C 159.597 252.297,160.202 252.887,161.039 254.331 C 163.234 258.115,163.739 258.214,164.906 255.087 C 166.547 250.688,165.672 250.799,198.823 250.799 C 231.606 250.799,229.581 250.487,230.968 255.744 C 231.632 258.260,231.940 258.377,233.033 256.523 C 236.691 250.319,232.718 250.883,274.348 250.654 C 306.673 250.475,309.089 250.422,310.333 249.861 C 312.919 248.694,312.929 247.214,310.367 244.693 C 308.378 242.735,307.887 242.565,307.015 243.528 C 306.699 243.877,305.502 244.596,304.356 245.126 L 302.271 246.089 269.975 246.291 C 248.587 246.425,236.750 246.623,234.930 246.879 C 232.888 247.165,231.635 247.168,230.052 246.888 C 226.284 246.222,176.466 246.102,168.713 246.741 C 163.730 247.151,161.876 247.185,160.303 246.891 C 158.963 246.642,147.426 246.440,125.988 246.292 C 91.785 246.055,92.585 246.095,90.496 244.497 C 88.018 242.599,87.011 237.992,88.141 233.715 C 89.099 230.090,88.654 228.500,87.273 230.609 M223.390 266.629 C 220.350 269.529,220.407 270.612,223.547 269.624 C 225.809 268.913,226.441 268.236,226.660 266.288 C 226.907 264.101,225.935 264.202,223.390 266.629 M178.403 272.719 C 177.531 274.990,183.347 277.407,185.554 275.690 C 186.638 274.847,184.304 273.011,181.533 272.529 C 178.792 272.052,178.655 272.060,178.403 272.719 M215.643 273.924 C 215.181 274.110,214.348 274.379,213.793 274.523 C 212.880 274.759,212.932 274.787,214.341 274.818 C 215.359 274.841,216.044 274.676,216.323 274.340 C 216.892 273.654,216.663 273.514,215.643 273.924 " stroke="none" fill="#ffffff" fill-rule="evenodd"></path><path id="path1" d="M281.749 81.936 C 275.232 83.155,271.164 84.719,268.826 86.902 C 267.977 87.694,266.337 88.984,265.180 89.769 C 262.736 91.426,262.566 91.658,260.743 95.820 C 259.987 97.546,258.626 100.084,257.718 101.462 C 253.975 107.138,254.035 116.034,257.853 121.403 C 259.193 123.287,260.145 125.142,261.106 127.739 C 262.028 130.231,262.793 131.308,264.300 132.239 C 264.965 132.651,266.184 133.903,267.009 135.023 C 268.828 137.495,269.195 137.763,272.099 138.751 C 273.357 139.179,276.270 140.338,278.573 141.327 L 282.759 143.125 286.964 143.135 L 291.169 143.146 294.197 141.755 C 295.862 140.990,298.551 139.950,300.172 139.443 C 305.656 137.730,307.746 135.665,313.043 126.731 C 317.997 118.374,318.300 103.358,313.645 96.917 C 313.031 96.068,312.114 94.617,311.605 93.692 C 310.201 91.136,304.615 85.913,301.660 84.394 C 297.666 82.341,286.774 80.996,281.749 81.936 " stroke="none" fill="#fca62f" fill-rule="evenodd"></path><path id="path3" d="M191.123 35.003 C 185.349 36.514,181.256 39.183,178.095 43.498 C 176.847 45.201,175.234 47.400,174.510 48.386 C 172.398 51.262,171.864 52.811,171.662 56.644 C 171.400 61.613,170.953 62.245,166.670 63.703 C 165.388 64.139,163.200 65.239,161.808 66.149 C 160.415 67.058,157.961 68.310,156.355 68.931 C 154.523 69.639,152.698 70.654,151.457 71.654 C 150.369 72.531,148.054 74.196,146.312 75.354 C 144.571 76.513,142.464 78.114,141.632 78.913 C 140.799 79.711,139.134 81.096,137.932 81.990 C 136.729 82.883,135.215 84.368,134.567 85.289 C 133.920 86.210,132.538 87.796,131.498 88.814 C 130.458 89.832,128.967 91.724,128.185 93.019 C 127.404 94.315,126.012 96.474,125.092 97.817 C 122.996 100.879,122.003 103.071,119.646 109.840 C 118.615 112.801,117.216 116.661,116.538 118.419 C 114.052 124.863,113.671 132.088,113.750 171.311 C 113.797 194.242,113.724 199.576,113.362 200.013 C 112.651 200.870,111.277 201.451,108.682 201.992 C 105.880 202.576,104.390 203.400,103.117 205.069 C 102.511 205.864,101.250 206.728,99.320 207.671 C 96.982 208.814,96.209 209.391,95.270 210.699 C 94.631 211.587,93.229 212.911,92.154 213.641 C 91.079 214.372,89.698 215.588,89.086 216.344 C 88.474 217.101,87.389 218.416,86.674 219.268 C 84.482 221.882,83.858 223.047,82.126 227.754 C 81.207 230.252,80.057 233.248,79.570 234.412 C 78.377 237.261,77.728 240.855,77.480 245.988 L 77.274 250.259 78.438 251.424 C 80.892 253.877,83.244 254.020,120.606 253.971 C 158.575 253.921,156.397 253.616,157.818 259.183 C 158.711 262.684,159.437 264.038,161.986 266.960 C 163.152 268.297,164.280 269.716,164.492 270.114 C 164.705 270.512,166.014 271.676,167.402 272.702 C 168.789 273.728,170.552 275.249,171.320 276.082 C 172.997 277.902,173.753 278.313,178.124 279.783 C 179.979 280.408,182.137 281.377,182.920 281.938 C 186.524 284.523,190.011 285.111,200.151 284.845 C 208.257 284.632,209.146 284.451,213.027 282.221 C 214.641 281.294,217.246 280.101,218.815 279.571 C 221.578 278.637,224.082 277.213,225.082 276.006 C 225.349 275.684,226.583 274.611,227.824 273.620 C 232.066 270.235,235.344 265.831,237.334 260.844 C 240.320 253.361,237.430 253.900,274.180 253.968 C 313.474 254.040,316.059 253.859,317.931 250.906 C 319.669 248.164,317.384 233.107,314.553 228.652 C 313.985 227.758,312.932 225.865,312.214 224.447 C 311.401 222.843,310.246 221.231,309.161 220.185 C 308.201 219.260,306.832 217.723,306.118 216.769 C 305.329 215.715,304.093 214.619,302.967 213.974 C 301.947 213.391,300.768 212.457,300.346 211.899 C 298.140 208.977,297.214 208.221,294.701 207.288 C 290.550 205.748,283.280 199.883,283.252 198.054 C 283.246 197.644,283.186 190.193,283.120 181.497 C 283.053 172.801,282.901 164.929,282.781 164.003 C 282.287 160.202,285.650 158.171,293.354 157.619 C 299.537 157.175,308.032 153.781,311.859 150.223 C 312.876 149.277,314.560 147.952,315.600 147.279 C 316.640 146.606,318.076 145.325,318.790 144.432 C 319.504 143.540,320.835 141.976,321.747 140.959 C 322.731 139.861,324.065 137.741,325.029 135.744 C 325.921 133.894,327.390 131.135,328.293 129.614 C 330.842 125.317,331.571 118.558,331.003 104.493 C 330.687 96.656,330.387 95.357,328.074 91.800 C 327.186 90.435,325.682 87.956,324.730 86.291 C 323.778 84.626,322.295 82.582,321.435 81.749 C 320.574 80.917,319.184 79.352,318.345 78.272 C 317.383 77.033,315.936 75.742,314.424 74.775 C 313.106 73.931,311.346 72.642,310.513 71.911 C 306.308 68.215,300.853 67.115,286.796 67.128 C 272.675 67.141,269.124 67.926,263.246 72.332 C 255.675 78.008,252.396 78.239,246.954 73.481 C 244.051 70.942,242.790 70.187,239.195 68.834 C 237.518 68.203,235.354 67.089,234.387 66.358 C 232.082 64.618,231.023 64.091,227.768 63.062 C 224.255 61.953,224.016 61.589,223.672 56.824 C 223.245 50.913,222.701 49.545,219.336 45.918 C 218.305 44.806,216.824 42.958,216.045 41.811 C 211.935 35.759,200.335 32.590,191.123 35.003 M204.878 38.375 C 208.486 39.147,213.136 42.733,216.381 47.247 C 217.320 48.553,218.527 49.976,219.062 50.410 C 220.761 51.787,221.437 53.611,221.699 57.532 C 222.028 62.449,222.627 63.476,226.072 65.033 C 227.090 65.493,228.640 66.553,229.517 67.388 C 230.789 68.599,231.944 69.230,235.228 70.508 C 238.357 71.725,239.711 72.449,240.867 73.523 C 241.704 74.301,243.213 75.352,244.221 75.859 C 245.228 76.366,246.930 77.618,248.003 78.641 L 249.953 80.501 252.451 80.312 C 255.938 80.049,256.441 79.799,265.457 73.844 C 269.005 71.500,269.933 70.995,271.657 70.472 C 279.965 67.949,300.043 68.514,304.775 71.404 C 309.403 74.230,314.550 77.773,315.440 78.745 C 320.834 84.628,323.110 87.516,324.341 90.043 C 325.077 91.552,326.110 93.383,326.639 94.113 C 328.850 97.166,329.165 98.415,329.675 106.168 C 330.264 115.117,329.422 122.667,327.460 126.039 C 326.829 127.121,325.926 128.839,325.451 129.857 C 322.873 135.385,322.099 136.775,320.766 138.277 C 319.960 139.183,318.695 140.819,317.953 141.911 C 316.469 144.096,315.104 145.372,313.226 146.330 C 312.547 146.677,311.243 147.633,310.327 148.455 C 306.837 151.591,302.306 153.260,293.692 154.581 C 280.179 156.653,279.068 157.657,279.157 167.704 C 279.377 192.574,279.631 199.521,280.367 200.847 C 281.941 203.683,287.879 207.717,292.047 208.780 C 295.305 209.612,296.410 210.322,297.729 212.432 C 298.558 213.758,299.525 214.719,300.995 215.682 C 302.412 216.610,303.375 217.553,303.992 218.617 C 304.491 219.480,305.843 221.191,306.994 222.420 C 309.227 224.804,311.298 229.228,312.168 233.474 C 312.376 234.491,312.844 236.232,313.206 237.342 C 315.189 243.412,315.690 248.884,314.375 250.103 C 312.574 251.773,312.965 251.754,276.198 251.963 C 244.014 252.146,241.594 252.200,239.883 252.773 C 237.547 253.556,236.096 255.018,235.329 257.359 C 234.379 260.262,233.346 262.207,231.800 264.001 C 231.015 264.913,229.745 266.692,228.979 267.955 C 227.823 269.860,227.214 270.474,225.399 271.559 C 224.197 272.278,222.607 273.528,221.867 274.337 C 220.153 276.212,219.702 276.425,214.688 277.735 C 211.566 278.551,210.091 279.127,208.737 280.059 C 203.889 283.398,193.872 283.543,187.791 280.362 C 186.245 279.553,183.745 278.576,182.235 278.191 C 178.392 277.209,176.276 276.118,174.383 274.141 C 173.485 273.203,171.668 271.699,170.346 270.798 C 168.555 269.578,167.551 268.576,166.415 266.876 C 165.575 265.620,164.127 263.697,163.198 262.604 C 162.020 261.220,161.119 259.645,160.232 257.420 C 157.973 251.757,161.459 252.226,119.933 251.993 C 91.500 251.834,85.070 251.715,84.104 251.331 C 80.853 250.041,80.235 248.656,81.360 245.183 C 81.738 244.016,82.515 240.526,83.086 237.428 C 84.824 228.007,89.117 219.609,94.062 215.955 C 95.022 215.246,96.472 213.788,97.284 212.716 C 98.476 211.142,99.312 210.472,101.610 209.250 C 103.177 208.417,105.442 207.116,106.645 206.358 C 107.847 205.601,109.664 204.713,110.681 204.384 C 116.511 202.500,116.064 205.381,116.065 169.700 C 116.067 132.485,116.341 127.965,118.853 123.759 C 120.524 120.961,120.705 120.414,121.611 115.411 C 122.513 110.432,123.173 108.519,124.811 106.139 C 125.372 105.324,126.641 102.947,127.631 100.857 C 130.828 94.110,137.897 85.386,142.741 82.209 C 144.074 81.336,145.935 79.904,146.878 79.029 C 147.820 78.153,149.671 76.904,150.989 76.252 C 152.308 75.600,154.337 74.299,155.497 73.360 C 157.006 72.139,158.646 71.247,161.265 70.225 C 163.720 69.267,165.437 68.354,166.482 67.449 C 167.339 66.708,168.722 65.739,169.554 65.297 C 172.920 63.508,173.559 62.458,174.135 57.780 C 174.579 54.174,174.648 53.972,176.236 51.668 C 177.139 50.357,178.261 48.528,178.729 47.603 C 179.703 45.678,180.070 45.314,184.133 42.236 C 189.748 37.984,196.857 36.661,204.878 38.375 M196.131 45.295 C 193.621 45.790,192.600 46.258,191.072 47.615 C 190.145 48.438,188.822 49.401,188.133 49.754 C 184.931 51.396,183.970 54.203,185.252 58.171 C 186.366 61.621,187.951 62.261,191.957 60.879 C 195.154 59.776,199.408 59.646,202.979 60.542 C 208.421 61.907,211.270 59.988,211.270 54.956 C 211.270 48.602,203.741 43.797,196.131 45.295 M204.436 49.955 C 208.576 51.920,209.724 54.139,207.775 56.406 L 206.971 57.340 198.305 57.238 C 189.112 57.130,188.266 57.008,187.674 55.709 C 186.983 54.193,187.546 53.285,190.105 51.791 C 197.060 47.729,199.176 47.458,204.436 49.955 M186.375 69.451 C 180.710 69.882,180.335 69.956,176.451 71.428 C 166.069 75.360,161.667 77.335,159.725 78.931 C 158.667 79.800,157.002 80.943,156.024 81.470 C 155.047 81.998,153.259 83.449,152.052 84.696 C 150.845 85.943,149.132 87.522,148.246 88.205 C 147.360 88.888,146.153 90.050,145.563 90.788 C 144.974 91.526,143.725 92.737,142.788 93.478 C 141.588 94.428,140.660 95.603,139.647 97.455 C 138.666 99.250,137.765 100.404,136.809 101.093 C 135.724 101.875,135.066 102.803,133.894 105.204 C 133.061 106.910,131.896 108.803,131.304 109.410 C 129.924 110.825,129.045 112.839,128.170 116.588 C 127.786 118.239,126.653 121.559,125.654 123.966 C 122.949 130.483,123.017 129.408,122.986 166.526 C 122.955 205.204,122.291 201.515,129.557 203.031 C 134.738 204.112,136.078 205.152,135.966 208.002 C 135.796 212.340,133.849 213.112,121.783 213.621 C 110.807 214.085,108.218 214.743,104.407 218.043 C 103.510 218.820,101.774 220.098,100.550 220.882 C 98.275 222.341,97.497 223.197,96.292 225.568 C 95.915 226.308,94.816 227.973,93.849 229.268 C 88.823 235.996,89.265 241.185,95.038 243.248 C 96.800 243.877,298.545 244.162,300.863 243.537 C 306.834 241.930,306.817 233.908,300.831 227.582 C 299.587 226.268,297.940 224.432,297.170 223.502 C 296.327 222.484,294.787 221.234,293.301 220.363 C 291.943 219.568,290.033 218.322,289.055 217.596 C 282.853 212.993,282.065 212.939,221.362 212.957 C 191.323 212.966,174.703 212.853,173.958 212.633 C 170.860 211.721,169.145 207.690,170.904 205.454 C 172.528 203.389,169.920 203.495,221.216 203.425 C 271.572 203.357,269.622 203.428,271.549 201.611 C 273.086 200.161,273.176 198.952,273.260 178.469 C 273.359 154.385,273.674 155.818,267.244 151.119 C 266.155 150.324,264.508 149.073,263.583 148.340 C 262.658 147.607,260.584 146.325,258.976 145.491 C 255.891 143.891,255.374 143.362,253.730 140.118 C 253.167 139.008,252.090 137.267,251.336 136.249 C 248.609 132.569,247.901 131.328,247.113 128.848 C 246.672 127.460,245.832 124.962,245.245 123.297 C 242.350 115.082,242.311 106.150,245.138 98.402 C 245.611 97.107,246.299 95.214,246.668 94.197 C 248.474 89.214,246.545 85.159,240.705 81.661 C 239.039 80.663,236.865 79.232,235.872 78.481 C 234.880 77.730,232.988 76.697,231.668 76.186 C 230.348 75.675,228.520 74.884,227.606 74.428 C 218.443 69.859,203.970 68.112,186.375 69.451 M207.187 72.492 C 209.494 72.796,212.270 73.443,214.311 74.152 C 216.149 74.791,219.492 75.716,221.738 76.207 C 226.572 77.264,227.831 77.769,230.925 79.891 C 232.206 80.770,234.704 82.187,236.476 83.041 C 244.163 86.744,246.604 91.204,243.399 95.693 C 239.626 100.976,239.902 120.454,243.837 126.596 C 244.572 127.742,245.493 129.664,245.886 130.866 C 246.779 133.605,247.974 135.643,250.126 138.101 C 251.051 139.158,252.414 141.179,253.154 142.593 C 254.460 145.089,254.576 145.204,257.111 146.526 C 258.547 147.275,260.439 148.582,261.316 149.429 C 262.193 150.276,264.070 151.817,265.489 152.853 C 270.716 156.671,270.601 156.048,270.398 179.374 C 270.223 199.600,270.301 198.874,268.164 199.980 C 265.877 201.162,263.395 201.214,219.463 201.008 C 163.769 200.746,166.358 200.412,166.358 207.846 C 166.358 212.786,166.958 213.735,170.807 214.880 C 172.596 215.412,176.976 215.474,225.904 215.654 C 266.207 215.803,279.412 215.950,280.523 216.261 C 282.551 216.830,283.628 217.431,285.461 219.017 C 286.329 219.768,288.085 220.909,289.363 221.553 C 292.076 222.919,295.879 226.383,298.538 229.908 C 299.529 231.221,300.676 232.598,301.087 232.968 C 303.472 235.111,303.377 238.694,300.909 239.726 C 299.125 240.471,99.824 240.438,97.311 239.692 C 93.569 238.580,93.255 237.140,95.781 232.684 C 96.637 231.175,97.683 229.319,98.108 228.559 C 99.659 225.779,101.890 223.475,105.198 221.235 C 107.011 220.007,109.131 218.488,109.910 217.859 C 111.934 216.222,113.630 215.962,124.306 215.647 C 138.516 215.229,139.900 214.599,140.197 208.410 C 140.424 203.699,139.367 202.588,133.507 201.375 C 129.154 200.475,127.964 199.879,127.288 198.260 C 126.722 196.906,126.627 148.919,127.173 139.952 C 127.777 130.021,129.779 120.831,132.525 115.391 C 133.412 113.633,134.718 110.544,135.426 108.526 C 136.608 105.160,136.874 104.704,138.635 103.028 C 139.879 101.843,140.761 100.649,141.143 99.633 C 141.988 97.383,142.768 96.402,144.614 95.266 C 145.510 94.714,146.912 93.384,147.729 92.308 C 148.753 90.962,149.870 89.983,151.318 89.163 C 152.474 88.509,154.056 87.229,154.833 86.319 C 155.839 85.142,156.928 84.347,158.611 83.564 C 159.911 82.958,162.614 81.484,164.617 80.287 C 166.953 78.892,169.305 77.794,171.177 77.225 C 172.783 76.737,176.215 75.674,178.806 74.861 C 187.710 72.070,197.678 71.238,207.187 72.492 M172.159 252.495 C 167.017 253.759,165.859 256.381,169.254 259.070 C 169.967 259.634,171.185 261.078,171.961 262.278 C 173.058 263.974,173.823 264.725,175.398 265.648 C 176.512 266.301,178.139 267.478,179.012 268.263 C 187.127 275.559,209.875 276.110,216.583 269.173 C 217.562 268.160,219.179 266.791,220.176 266.130 C 221.173 265.469,222.450 264.323,223.014 263.583 C 224.433 261.720,225.414 260.758,226.463 260.202 C 229.630 258.524,229.622 254.139,226.449 252.698 C 224.727 251.915,175.266 251.731,172.159 252.495 M224.166 254.608 C 226.375 255.585,226.317 256.482,223.914 258.556 C 222.913 259.421,221.623 260.783,221.050 261.582 C 220.466 262.395,219.210 263.491,218.198 264.069 C 217.204 264.638,215.326 265.995,214.025 267.084 C 207.249 272.760,194.301 272.679,183.552 266.895 C 173.081 261.261,168.973 255.565,174.389 254.190 C 177.426 253.419,222.330 253.796,224.166 254.608 " stroke="none" fill="#ffffff" fill-rule="evenodd"></path><path id="path4" d="M192.741 38.177 C 189.230 38.845,187.587 39.621,184.133 42.236 C 180.070 45.314,179.703 45.678,178.729 47.603 C 178.261 48.528,177.139 50.357,176.236 51.668 C 174.648 53.972,174.579 54.174,174.135 57.780 C 173.559 62.458,172.920 63.508,169.554 65.297 C 168.722 65.739,167.339 66.708,166.482 67.449 C 165.437 68.354,163.720 69.267,161.265 70.225 C 158.646 71.247,157.006 72.139,155.497 73.360 C 154.337 74.299,152.308 75.600,150.989 76.252 C 149.671 76.904,147.820 78.153,146.878 79.029 C 145.935 79.904,144.074 81.336,142.741 82.209 C 137.897 85.386,130.828 94.110,127.631 100.857 C 126.641 102.947,125.372 105.324,124.811 106.139 C 123.173 108.519,122.513 110.432,121.611 115.411 C 120.705 120.414,120.524 120.961,118.853 123.759 C 116.341 127.965,116.067 132.485,116.065 169.700 C 116.064 205.381,116.511 202.500,110.681 204.384 C 109.664 204.713,107.847 205.601,106.645 206.358 C 105.442 207.116,103.177 208.417,101.610 209.250 C 99.312 210.472,98.476 211.142,97.284 212.716 C 96.472 213.788,95.022 215.246,94.062 215.955 C 89.117 219.609,84.824 228.007,83.086 237.428 C 82.515 240.526,81.738 244.016,81.360 245.183 C 80.235 248.656,80.853 250.041,84.104 251.331 C 85.070 251.715,91.500 251.834,119.933 251.993 C 161.459 252.226,157.973 251.757,160.232 257.420 C 161.119 259.645,162.020 261.220,163.198 262.604 C 164.127 263.697,165.575 265.620,166.415 266.876 C 167.551 268.576,168.555 269.578,170.346 270.798 C 171.668 271.699,173.485 273.203,174.383 274.141 C 176.276 276.118,178.392 277.209,182.235 278.191 C 183.745 278.576,186.245 279.553,187.791 280.362 C 193.872 283.543,203.889 283.398,208.737 280.059 C 210.091 279.127,211.566 278.551,214.688 277.735 C 219.702 276.425,220.153 276.212,221.867 274.337 C 222.607 273.528,224.197 272.278,225.399 271.559 C 227.214 270.474,227.823 269.860,228.979 267.955 C 229.745 266.692,231.015 264.913,231.800 264.001 C 233.346 262.207,234.379 260.262,235.329 257.359 C 236.096 255.018,237.547 253.556,239.883 252.773 C 241.594 252.200,244.014 252.146,276.198 251.963 C 312.965 251.754,312.574 251.773,314.375 250.103 C 315.690 248.884,315.189 243.412,313.206 237.342 C 312.844 236.232,312.376 234.491,312.168 233.474 C 311.298 229.228,309.227 224.804,306.994 222.420 C 305.843 221.191,304.491 219.480,303.992 218.617 C 303.375 217.553,302.412 216.610,300.995 215.682 C 299.525 214.719,298.558 213.758,297.729 212.432 C 296.410 210.322,295.305 209.612,292.047 208.780 C 287.879 207.717,281.941 203.683,280.367 200.847 C 279.631 199.521,279.377 192.574,279.157 167.704 C 279.068 157.657,280.179 156.653,293.692 154.581 C 302.306 153.260,306.837 151.591,310.327 148.455 C 311.243 147.633,312.547 146.677,313.226 146.330 C 315.104 145.372,316.469 144.096,317.953 141.911 C 318.695 140.819,319.960 139.183,320.766 138.277 C 322.099 136.775,322.873 135.385,325.451 129.857 C 325.926 128.839,326.829 127.121,327.460 126.039 C 329.422 122.667,330.264 115.117,329.675 106.168 C 329.165 98.415,328.850 97.166,326.639 94.113 C 326.110 93.383,325.077 91.552,324.341 90.043 C 323.110 87.516,320.834 84.628,315.440 78.745 C 314.550 77.773,309.403 74.230,304.775 71.404 C 300.043 68.514,279.965 67.949,271.657 70.472 C 269.933 70.995,269.005 71.500,265.457 73.844 C 256.441 79.799,255.938 80.049,252.451 80.312 L 249.953 80.501 248.003 78.641 C 246.930 77.618,245.228 76.366,244.221 75.859 C 243.213 75.352,241.704 74.301,240.867 73.523 C 239.711 72.449,238.357 71.725,235.228 70.508 C 231.944 69.230,230.789 68.599,229.517 67.388 C 228.640 66.553,227.090 65.493,226.072 65.033 C 222.627 63.476,222.028 62.449,221.699 57.532 C 221.437 53.611,220.761 51.787,219.062 50.410 C 218.527 49.976,217.320 48.553,216.381 47.247 C 214.527 44.668,209.956 40.404,207.969 39.399 C 205.067 37.930,197.305 37.308,192.741 38.177 M203.942 40.348 C 205.135 40.715,206.230 41.505,206.219 41.992 C 206.198 42.884,205.429 43.060,200.825 43.229 C 190.976 43.589,189.837 43.859,187.889 46.291 C 187.334 46.984,186.218 48.308,185.409 49.233 C 183.412 51.516,183.134 52.360,182.873 56.927 C 182.578 62.104,183.913 64.668,187.499 65.806 C 188.542 66.137,185.727 66.935,183.493 66.942 C 182.555 66.945,180.663 67.246,179.288 67.612 C 176.404 68.379,172.245 68.533,172.247 67.872 C 172.248 67.641,172.513 67.056,172.836 66.573 C 173.159 66.089,174.126 64.651,174.985 63.377 C 176.455 61.196,176.567 60.868,176.897 57.796 C 177.561 51.597,180.988 46.480,185.307 45.236 C 186.778 44.812,187.564 44.319,188.730 43.088 C 191.763 39.884,198.492 38.672,203.942 40.348 M204.710 45.971 C 209.594 47.780,212.667 54.143,210.607 58.182 C 209.138 61.060,207.305 61.627,202.979 60.542 C 199.408 59.646,195.154 59.776,191.957 60.879 C 187.951 62.261,186.366 61.621,185.252 58.171 C 183.970 54.203,184.931 51.396,188.133 49.754 C 188.822 49.401,190.145 48.438,191.072 47.615 C 192.600 46.258,193.621 45.790,196.131 45.295 C 197.894 44.948,203.044 45.354,204.710 45.971 M214.618 49.138 C 215.383 50.572,216.172 51.464,217.492 52.387 C 219.754 53.967,219.980 54.465,220.352 58.676 C 220.729 62.954,221.236 64.147,223.452 65.975 C 227.856 69.607,226.554 69.890,215.812 67.632 C 214.146 67.282,211.682 66.808,210.335 66.579 C 207.765 66.142,207.390 65.687,209.109 65.093 C 210.987 64.444,213.314 62.827,213.843 61.805 C 214.656 60.233,214.292 53.235,213.319 51.719 C 211.402 48.733,210.932 47.220,211.859 47.022 C 213.029 46.771,213.583 47.195,214.618 49.138 M201.514 65.265 C 201.514 65.662,200.515 65.669,198.654 65.284 C 197.369 65.018,197.402 65.004,199.411 64.967 C 200.615 64.945,201.514 65.072,201.514 65.265 M212.004 69.627 C 214.780 69.960,224.875 73.066,227.606 74.428 C 228.520 74.884,230.348 75.675,231.668 76.186 C 232.988 76.697,234.880 77.730,235.872 78.481 C 236.865 79.232,239.039 80.663,240.705 81.661 C 246.545 85.159,248.474 89.214,246.668 94.197 C 246.299 95.214,245.611 97.107,245.138 98.402 C 242.311 106.150,242.350 115.082,245.245 123.297 C 245.832 124.962,246.672 127.460,247.113 128.848 C 247.901 131.328,248.609 132.569,251.336 136.249 C 252.090 137.267,253.167 139.008,253.730 140.118 C 255.374 143.362,255.891 143.891,258.976 145.491 C 260.584 146.325,262.658 147.607,263.583 148.340 C 264.508 149.073,266.155 150.324,267.244 151.119 C 273.674 155.818,273.359 154.385,273.260 178.469 C 273.176 198.952,273.086 200.161,271.549 201.611 C 269.622 203.428,271.572 203.357,221.216 203.425 C 169.920 203.495,172.528 203.389,170.904 205.454 C 169.145 207.690,170.860 211.721,173.958 212.633 C 174.703 212.853,191.323 212.966,221.362 212.957 C 282.065 212.939,282.853 212.993,289.055 217.596 C 290.033 218.322,291.943 219.568,293.301 220.363 C 294.787 221.234,296.327 222.484,297.170 223.502 C 297.940 224.432,299.587 226.268,300.831 227.582 C 306.817 233.908,306.834 241.930,300.863 243.537 C 298.545 244.162,96.800 243.877,95.038 243.248 C 89.265 241.185,88.823 235.996,93.849 229.268 C 94.816 227.973,95.915 226.308,96.292 225.568 C 97.497 223.197,98.275 222.341,100.550 220.882 C 101.774 220.098,103.510 218.820,104.407 218.043 C 108.218 214.743,110.807 214.085,121.783 213.621 C 133.849 213.112,135.796 212.340,135.966 208.002 C 136.078 205.152,134.738 204.112,129.557 203.031 C 122.291 201.515,122.955 205.204,122.986 166.526 C 123.017 129.408,122.949 130.483,125.654 123.966 C 126.653 121.559,127.786 118.239,128.170 116.588 C 129.045 112.839,129.924 110.825,131.304 109.410 C 131.896 108.803,133.061 106.910,133.894 105.204 C 135.066 102.803,135.724 101.875,136.809 101.093 C 137.765 100.404,138.666 99.250,139.647 97.455 C 140.660 95.603,141.588 94.428,142.788 93.478 C 143.725 92.737,144.974 91.526,145.563 90.788 C 146.153 90.050,147.360 88.888,148.246 88.205 C 149.132 87.522,150.845 85.943,152.052 84.696 C 153.259 83.449,155.047 81.998,156.024 81.470 C 157.002 80.943,158.667 79.800,159.725 78.931 C 161.667 77.335,166.069 75.360,176.451 71.428 C 182.400 69.175,200.558 68.255,212.004 69.627 M293.791 70.156 C 300.100 70.838,302.017 71.358,304.722 73.121 C 305.964 73.930,307.757 74.985,308.706 75.464 C 311.174 76.712,314.087 79.155,316.767 82.225 C 318.046 83.690,319.878 85.781,320.839 86.873 C 321.824 87.991,323.195 90.133,323.979 91.779 C 324.745 93.387,325.745 95.193,326.202 95.795 C 330.021 100.824,330.010 119.936,326.185 125.716 C 325.709 126.435,324.783 128.355,324.127 129.981 C 322.778 133.326,321.909 134.803,319.445 137.931 C 318.498 139.134,317.198 140.921,316.557 141.903 C 315.675 143.254,314.736 144.096,312.700 145.366 C 311.220 146.289,308.949 147.790,307.653 148.701 C 304.036 151.244,301.699 151.958,292.723 153.256 C 282.100 154.792,281.699 154.923,278.790 157.810 C 276.031 160.547,275.786 160.502,274.485 157.023 C 273.554 154.533,272.363 153.120,269.663 151.302 C 268.539 150.545,266.922 149.304,266.068 148.544 C 265.215 147.784,262.944 146.357,261.022 145.373 C 256.607 143.111,256.154 142.670,253.979 138.511 C 252.997 136.632,251.634 134.484,250.951 133.737 C 248.809 131.397,247.517 127.714,245.460 118.082 C 244.088 111.658,244.065 110.949,245.058 105.750 C 246.280 99.352,246.592 98.014,247.361 95.879 C 247.844 94.541,248.087 92.739,248.239 89.371 C 248.497 83.675,248.491 83.683,254.168 81.895 C 257.325 80.900,258.389 80.386,260.066 79.045 C 261.192 78.145,263.125 76.845,264.362 76.156 C 265.599 75.466,267.466 74.320,268.511 73.609 C 271.614 71.499,275.290 70.480,281.581 69.987 C 286.750 69.582,288.740 69.609,293.791 70.156 M151.388 80.363 C 151.388 80.525,151.161 80.846,150.883 81.077 C 150.606 81.307,150.378 81.686,150.378 81.920 C 150.378 82.153,150.091 82.419,149.741 82.511 C 149.390 82.602,148.828 83.263,148.491 83.980 C 147.925 85.184,146.117 87.139,141.714 91.305 C 140.633 92.328,139.453 93.950,138.608 95.574 C 137.413 97.870,137.005 98.339,135.293 99.379 C 133.476 100.483,132.548 101.632,132.548 102.780 C 132.548 104.494,130.593 106.466,129.540 105.815 C 128.576 105.219,129.533 101.841,131.164 100.084 C 131.679 99.529,132.983 97.485,134.061 95.542 C 135.483 92.981,136.677 91.359,138.406 89.641 C 139.717 88.338,141.279 86.650,141.876 85.889 C 142.725 84.806,143.491 84.305,145.408 83.581 C 146.867 83.030,148.430 82.133,149.278 81.362 C 150.660 80.104,151.388 79.759,151.388 80.363 M125.718 114.603 C 125.419 117.499,124.474 118.204,124.474 115.530 C 124.474 113.637,124.846 112.700,125.598 112.700 C 125.781 112.700,125.832 113.500,125.718 114.603 M120.744 168.881 L 120.942 200.336 121.712 201.779 C 122.744 203.710,124.041 204.434,126.953 204.703 C 132.162 205.184,133.884 206.940,131.695 209.541 C 130.663 210.767,129.301 211.077,122.624 211.603 C 109.949 212.602,105.333 213.747,101.934 216.738 C 101.102 217.470,99.413 218.578,98.182 219.199 C 96.130 220.235,95.856 220.503,94.898 222.422 C 93.654 224.911,92.964 225.736,92.126 225.736 C 90.309 225.736,92.108 221.534,95.046 218.914 C 96.038 218.030,97.529 216.283,98.360 215.033 C 100.513 211.795,101.856 210.939,111.139 206.892 C 118.192 203.816,117.538 207.498,117.770 169.554 C 117.963 138.041,118.057 135.645,119.160 134.316 C 120.385 132.840,120.538 136.172,120.744 168.881 M276.842 197.897 C 277.717 204.783,283.125 209.563,291.001 210.411 C 294.312 210.768,294.966 211.161,296.363 213.635 C 297.293 215.282,298.069 216.139,299.551 217.157 C 300.649 217.912,301.779 219.020,302.123 219.680 C 302.779 220.936,305.130 226.072,305.130 226.247 C 305.130 227.030,300.835 224.043,299.417 222.274 C 298.474 221.097,296.989 219.691,296.118 219.150 C 295.246 218.609,293.352 217.370,291.908 216.397 C 287.432 213.380,285.222 212.687,277.712 211.951 C 275.862 211.769,273.279 211.322,271.973 210.957 C 267.814 209.795,264.262 209.704,233.137 209.955 C 175.300 210.423,176.079 210.425,175.124 209.800 C 173.480 208.722,173.826 206.249,175.711 205.605 C 176.118 205.466,195.828 205.514,219.512 205.711 C 271.311 206.142,270.449 206.174,273.119 203.745 C 274.580 202.416,275.818 198.850,275.850 195.879 C 275.874 193.681,276.457 194.868,276.842 197.897 M308.668 230.569 C 309.127 232.113,309.042 234.826,308.536 234.814 C 307.464 234.788,306.180 231.870,305.915 228.857 L 305.715 226.577 306.946 227.745 C 307.729 228.489,308.355 229.515,308.668 230.569 M88.701 230.301 C 88.813 230.591,88.561 232.127,88.141 233.715 C 87.011 237.992,88.018 242.599,90.496 244.497 C 92.585 246.095,91.785 246.055,125.988 246.292 C 147.426 246.440,158.963 246.642,160.303 246.891 C 161.876 247.185,163.730 247.151,168.713 246.741 C 176.466 246.102,226.284 246.222,230.052 246.888 C 231.635 247.168,232.888 247.165,234.930 246.879 C 236.750 246.623,248.587 246.425,269.975 246.291 L 302.271 246.089 304.356 245.126 C 305.502 244.596,306.699 243.877,307.015 243.528 C 308.656 241.715,313.277 246.725,311.926 248.852 C 310.895 250.474,311.410 250.449,274.348 250.654 C 232.718 250.883,236.691 250.319,233.033 256.523 C 231.940 258.377,231.632 258.260,230.968 255.744 C 229.581 250.487,231.606 250.799,198.823 250.799 C 165.672 250.799,166.547 250.688,164.906 255.087 C 163.739 258.214,163.234 258.115,161.039 254.331 C 160.202 252.887,159.597 252.297,158.284 251.640 L 156.602 250.799 121.432 250.631 C 88.271 250.472,86.208 250.428,85.335 249.856 C 83.620 248.732,83.501 247.851,84.730 245.360 C 85.743 243.305,85.848 242.756,86.271 237.300 C 86.769 230.876,87.792 227.931,88.701 230.301 M226.449 252.698 C 229.622 254.139,229.630 258.524,226.463 260.202 C 225.414 260.758,224.433 261.720,223.014 263.583 C 222.450 264.323,221.173 265.469,220.176 266.130 C 219.179 266.791,217.562 268.160,216.583 269.173 C 209.875 276.110,187.127 275.559,179.012 268.263 C 178.139 267.478,176.512 266.301,175.398 265.648 C 173.823 264.725,173.058 263.974,171.961 262.278 C 171.185 261.078,169.967 259.634,169.254 259.070 C 165.859 256.381,167.017 253.759,172.159 252.495 C 175.266 251.731,224.727 251.915,226.449 252.698 M226.660 266.288 C 226.441 268.236,225.809 268.913,223.547 269.624 C 220.407 270.612,220.350 269.529,223.390 266.629 C 225.935 264.202,226.907 264.101,226.660 266.288 M181.533 272.529 C 184.304 273.011,186.638 274.847,185.554 275.690 C 183.347 277.407,177.531 274.990,178.403 272.719 C 178.655 272.060,178.792 272.052,181.533 272.529 M216.323 274.340 C 216.044 274.676,215.359 274.841,214.341 274.818 C 212.932 274.787,212.880 274.759,213.793 274.523 C 214.348 274.379,215.181 274.110,215.643 273.924 C 216.663 273.514,216.892 273.654,216.323 274.340 " stroke="none" fill="#ffffff" fill-rule="evenodd"></path></g></svg>